HIERARCHY
ROOT hip
{
	OFFSET 0.000000 0.000000 0.000000 
	CHANNELS 6 Xposition Yposition Zposition Xrotation Zrotation Yrotation
	JOINT abdomen
	{
		OFFSET 0.000000 3.402643 0.000000 
		CHANNELS 3 Xrotation Zrotation Yrotation
		JOINT chest
		{
			OFFSET 0.000000 8.438565 -0.680529 
			CHANNELS 3 Xrotation Zrotation Yrotation
			JOINT neck
			{
				OFFSET 0.000000 10.207942 -0.272212 
				CHANNELS 3 Xrotation Zrotation Yrotation
				JOINT head
				{
					OFFSET 0.000000 3.130431 0.000000 
					CHANNELS 3 Xrotation Zrotation Yrotation
					End Site
					{
						OFFSET 0.000000 3.130435 0.000000 
					}
				}
			}
			JOINT lCollar
			{
				OFFSET 3.470700 6.669187 -0.816635 
				CHANNELS 3 Yrotation Zrotation Xrotation
				JOINT lShldr
				{
					OFFSET 3.198488 0.000000 0.000000 
					CHANNELS 3 Zrotation Yrotation Xrotation
					JOINT lForeArm
					{
						OFFSET 10.139888 0.000000 0.000000 
						CHANNELS 3 Yrotation Zrotation Xrotation
						JOINT lHand
						{
							OFFSET 8.370511 0.000000 0.000000 
							CHANNELS 3 Zrotation Yrotation Xrotation
							End Site
							{
								OFFSET 4.083176 0.000000 0.000000 
							}
						}
					}
				}
			}
			JOINT rCollar
			{
				OFFSET -3.470700 6.669187 -0.816635 
				CHANNELS 3 Yrotation Zrotation Xrotation
				JOINT rShldr
				{
					OFFSET -3.198488 0.000000 0.000000 
					CHANNELS 3 Zrotation Yrotation Xrotation
					JOINT rForeArm
					{
						OFFSET -10.139888 0.000000 0.000000 
						CHANNELS 3 Yrotation Zrotation Xrotation
						JOINT rHand
						{
							OFFSET -8.370511 0.000000 0.000000 
							CHANNELS 3 Zrotation Yrotation Xrotation
							End Site
							{
								OFFSET -4.083176 0.000000 0.000000 
							}
						}
					}
				}
			}
		}
	}
	JOINT lThigh
	{
		OFFSET 5.308129 -1.633274 1.361059 
		CHANNELS 3 Xrotation Zrotation Yrotation
		JOINT lShin
		{
			OFFSET -2.041588 -20.007561 0.000000 
			CHANNELS 3 Xrotation Zrotation Yrotation
			JOINT lFoot
			{
				OFFSET 0.000000 -19.190928 -1.224953 
				CHANNELS 3 Xrotation Yrotation Zrotation
				End Site
				{
					OFFSET 0.000000 -2.449906 4.627600 
				}
			}
		}
	}
	JOINT rThigh
	{
		OFFSET -5.308129 -1.633274 1.361059 
		CHANNELS 3 Xrotation Zrotation Yrotation
		JOINT rShin
		{
			OFFSET 2.041588 -20.007561 0.000000 
			CHANNELS 3 Xrotation Zrotation Yrotation
			JOINT rFoot
			{
				OFFSET 0.000000 -19.190928 -1.224953 
				CHANNELS 3 Xrotation Yrotation Zrotation
				End Site
				{
					OFFSET 0.000000 -2.449906 4.627600 
				}
			}
		}
	}
}
MOTION
Frames: 18
Frame Time: 0.033333
-32.511021 36.106735 7.886192 42.125729 -8.620762 19.691587 0.000000 0.000000 0.000000 31.487688 -3.124033 0.900320 -0.777221 -2.789284 1.457875 3.534765 -0.710103 -7.271007 -1.761451 -12.637351 25.000000 57.387299 -57.569336 -103.259399 -22.994972 -10.137296 3.146261 80.331596 -15.587639 -33.065388 31.422752 8.490399 25.000000 -59.131489 39.227226 -103.478241 31.192467 3.731691 2.844867 -33.572685 6.981037 24.166197 -73.170341 31.255280 26.204336 87.462189 -6.775534 19.187963 -70.579704 24.420887 -33.994751 -78.978127 -30.981184 -17.334507 88.319824 -1.670521 -53.200760 -19.223221 -7.438365 41.909294 
-32.027267 37.266502 7.627786 40.561462 -8.465105 19.868628 0.000000 0.000000 0.000000 31.078197 -2.861318 0.815438 -0.133086 -2.639765 1.885159 3.359316 -0.272293 -6.850008 -1.329607 -13.293748 25.000000 50.600914 -59.513195 -97.804688 -24.245279 -7.831077 3.022565 70.835106 -14.926468 -29.753441 29.354599 8.929087 25.000000 -56.531063 43.318966 -101.006775 30.618010 4.791402 2.897262 -35.221199 11.430182 15.811138 -67.692879 29.694250 27.155382 82.060211 -9.510420 -12.222738 -94.385033 4.577650 -4.249825 -75.263138 -31.308374 -17.251080 84.158646 0.300896 -51.614552 -18.723261 -6.756642 39.386864 
-31.592945 38.428791 7.405094 38.295273 -8.476509 19.561415 0.000000 0.000000 0.000000 30.561207 -2.910403 0.675019 0.340588 -2.048846 0.297086 3.837889 -0.048659 -6.402194 -0.750757 -14.105822 25.000000 42.889267 -59.749588 -90.125526 -24.602989 -6.479387 2.934939 60.610062 -14.957701 -26.830994 27.419188 8.916995 25.000000 -53.286518 48.941879 -100.705536 29.037306 4.909259 2.884010 -31.164845 8.953958 17.340458 -63.001911 29.327778 26.997162 76.784340 -11.770260 -49.111824 -91.753464 -15.849572 15.361776 -71.859474 -31.030136 -17.589836 79.637032 2.175049 -54.103195 -15.461659 -5.196494 36.933708 
-31.074596 39.535454 7.165427 35.681671 -7.990505 21.105953 0.000000 0.000000 0.000000 30.687719 -1.637780 0.990988 -0.258679 -3.158191 0.245265 5.408786 1.677079 -8.199024 -1.486651 -14.137135 25.000000 39.210899 -61.011909 -88.298676 -24.563005 -5.166504 2.860234 50.526226 -15.758404 -23.172237 22.028387 11.244380 25.000000 -49.304459 48.882881 -88.478806 28.465319 6.932018 3.001922 -30.884687 3.469947 10.784362 -59.296001 26.844736 26.513140 73.445595 -13.446009 -37.140762 -87.514427 -11.159326 11.631744 -67.321693 -31.960661 -17.396955 75.349640 3.844773 -53.264561 -14.413730 -4.494646 34.342552 
-30.542658 40.593044 6.955130 32.981209 -7.472321 19.999367 0.000000 0.000000 0.000000 29.599144 -2.411970 0.661754 1.732226 -1.742329 -0.866708 6.093378 0.985382 -5.619361 -0.043443 -14.408868 25.000000 29.602852 -60.445248 -76.254013 -24.538691 -5.855485 2.907525 44.481617 -14.813055 -19.783791 20.869707 10.972724 25.000000 -38.286842 54.182514 -78.721947 28.656242 6.849979 2.998838 -27.479389 1.033873 9.845000 -55.215015 26.201632 26.057596 69.868057 -14.868017 -51.112846 -78.883064 -15.436591 18.680130 -63.014786 -31.218063 -17.741137 70.419785 5.361157 -52.918541 -12.860561 -3.587900 30.974403 
-30.028576 41.650127 6.749666 30.165791 -6.943212 19.145012 0.000000 0.000000 0.000000 28.829844 -2.541408 0.505801 2.945243 -1.935999 -0.795042 7.010902 1.835229 -4.718960 2.072777 -15.145832 25.000000 24.040421 -58.849380 -67.327545 -24.467295 -6.845260 2.965045 33.672523 -14.636776 -16.223747 18.773342 12.176432 25.000000 -28.902109 56.607090 -68.950333 27.220919 7.691610 3.037067 -24.304314 -0.700323 8.184663 -51.499313 25.013521 25.347111 65.739616 -15.645151 -52.941120 -74.778076 -15.208504 19.796711 -58.792259 -30.002972 -18.592878 65.388924 6.989296 -52.875149 -12.004667 -2.902244 26.969303 
-29.493465 42.645676 6.624855 27.549042 -6.223329 18.979155 0.000000 0.000000 0.000000 27.875717 -2.287941 1.260838 4.527596 -0.435487 -1.145054 8.066406 -0.019530 -4.482243 2.969692 -16.521976 25.000000 16.993706 -58.025524 -57.346630 -25.438829 -7.125278 2.984662 28.265123 -13.413984 -12.525536 12.155823 16.241739 25.000000 -22.198458 55.871502 -55.649731 27.723730 9.126983 3.124605 -20.817043 -3.894343 9.873637 -47.312958 22.732552 24.602016 59.695053 -15.984603 -45.621571 -83.759262 -14.619771 16.248816 -54.175041 -29.252771 -18.887312 60.410027 8.134402 -53.861122 -10.374497 -2.236406 24.263750 
-28.942263 43.646626 6.582899 24.418468 -5.543329 18.630877 0.000000 0.000000 0.000000 27.412996 -2.124180 1.203065 5.183212 -0.812441 -1.028963 10.791465 1.161262 -4.369510 5.358484 -16.424837 25.000000 11.752719 -57.881516 -50.560062 -25.432228 -7.895796 3.038841 22.042425 -15.474328 -9.648727 8.468265 16.704422 25.000000 -13.509544 55.130322 -44.949570 27.436024 9.342172 3.138053 -19.043058 -3.855792 8.181736 -43.014339 20.670103 23.340151 55.485909 -15.816934 -34.922298 -83.164696 -11.450219 12.879507 -48.708691 -28.220230 -19.221985 54.685963 8.805761 -53.127258 -8.824369 -1.671720 21.192579 
-28.494186 44.525513 6.523338 21.594893 -5.659822 18.222807 0.000000 0.000000 0.000000 26.360247 -1.706412 1.283291 6.362246 -0.784330 -1.192518 12.307753 2.329113 -3.940777 5.611383 -15.790545 25.000000 3.522705 -55.734722 -39.937119 -28.491850 -8.056738 3.075726 17.566139 -13.414259 -8.185238 5.171267 17.178772 25.000000 -4.716439 53.009438 -32.679298 29.643339 9.010113 3.140717 -18.484070 -5.292102 3.658201 -39.956543 19.399450 22.098228 50.611782 -15.384297 -35.803589 -82.798157 -11.632148 13.169043 -43.796700 -26.325747 -19.358034 48.923222 9.535449 -51.582264 -7.654174 -1.211668 18.065535 
-28.055119 45.241062 6.564275 19.019604 -5.587757 17.520603 0.000000 0.000000 0.000000 25.607660 -1.690940 1.132867 6.661253 -0.340980 -1.955502 13.724790 2.285770 -3.066458 5.800028 -16.684521 25.000000 0.341410 -51.190182 -30.446907 -32.810467 -9.075122 3.184832 17.325865 -11.091396 -8.096537 1.143343 18.462608 25.000000 -0.365637 50.186138 -23.151678 32.733879 8.818088 3.166174 -20.797739 -7.869740 1.012427 -37.011356 18.564091 21.300083 47.835732 -14.954815 -33.357658 -78.555794 -10.533268 12.828961 -39.373734 -24.393177 -18.773697 43.485817 9.305708 -51.022629 -5.535285 -0.798493 15.962082 
-27.638140 45.903629 6.599598 16.921762 -5.354867 16.840256 0.000000 0.000000 0.000000 24.696629 -1.508380 1.054474 6.692413 0.145947 -3.247146 15.442713 1.764705 -3.499119 5.849424 -16.731974 25.000000 -4.028466 -47.224609 -21.345222 -36.512451 -9.241274 3.245961 17.630650 -10.951165 -7.257616 -2.247734 19.574295 25.000000 1.690322 46.274311 -15.502109 36.359169 8.536851 3.203963 -19.927111 -8.781863 0.112938 -33.851292 17.473406 21.049006 44.489868 -14.368936 -24.169868 -78.047966 -8.355285 10.261709 -35.419613 -22.714567 -18.659695 38.377232 9.478909 -50.707020 -4.089158 -0.503415 13.598213 
-27.345064 46.425877 6.722359 14.975615 -5.218002 16.037624 0.000000 0.000000 0.000000 23.892006 -1.169706 1.034546 6.874698 0.077004 -2.888149 15.962241 2.150130 -3.511281 6.877170 -17.171442 25.000000 -7.024068 -43.786953 -14.553617 -40.251511 -8.863512 3.279787 15.317401 -8.918517 -5.800251 -3.352612 19.752937 25.000000 3.603798 41.455036 -9.442610 39.905704 7.939112 3.214238 -19.459089 -9.039658 -1.944095 -30.923780 17.065531 21.115807 41.868874 -14.075024 -17.928665 -76.772095 -6.238397 7.833336 -32.108253 -20.340593 -17.487204 34.215523 8.635014 -51.498817 -2.540791 -0.298120 12.471115 
-27.082304 46.898163 6.851863 13.513863 -4.738752 15.044057 0.000000 0.000000 0.000000 22.847885 -1.286953 0.737025 7.942025 0.277608 -2.533133 14.866574 1.854110 -2.735795 6.697157 -17.541233 25.000000 -11.668827 -38.954018 -9.926151 -43.584480 -8.645800 3.311640 15.220069 -7.877860 -5.709786 -4.985095 20.499176 25.000000 5.935221 37.621727 -6.347407 42.357758 7.580338 3.227713 -19.188158 -9.391060 -1.744537 -28.456820 16.454918 21.140911 39.624443 -13.894428 -12.627230 -74.690819 -3.713504 4.846070 -29.148127 -18.727903 -17.164518 31.530769 8.148166 -51.436375 -3.840686 -0.404234 11.854540 
-26.935255 47.237053 7.014402 12.371792 -4.445531 14.357887 0.000000 0.000000 0.000000 21.714434 -1.252057 0.390010 8.088196 0.110786 -2.852848 15.511551 1.880788 -2.711430 6.383228 -17.730701 25.000000 -16.018900 -34.303684 -6.263581 -46.046265 -8.390792 3.330514 14.791161 -7.135545 -5.236690 -5.252975 20.574276 25.000000 8.938772 33.326885 -4.239104 44.845982 6.973717 3.225034 -19.348448 -10.559221 -3.253577 -26.697552 16.013519 21.044527 38.058304 -13.719075 -9.874307 -71.432045 -2.894009 4.001436 -26.500998 -17.252615 -16.895487 30.533665 8.478174 -49.248390 -7.044614 -0.730644 11.910484 
-26.910717 47.506866 7.245085 11.380974 -4.356328 13.713434 0.000000 0.000000 0.000000 20.453209 -1.107167 0.104577 9.610027 -0.333916 -2.948667 14.147262 2.799366 -2.941143 5.665823 -16.937542 25.000000 -21.389175 -29.509384 -3.068107 -47.855499 -8.047922 3.343966 14.228292 -6.569279 -5.422801 -5.702359 21.156260 25.000000 11.170267 29.658945 -2.218503 46.207241 6.546103 3.220984 -18.864641 -10.776760 -1.863002 -25.418102 15.720440 20.502769 36.681911 -13.162245 -7.202593 -69.063583 -2.360310 3.387795 -23.893364 -15.514119 -16.573233 30.299795 9.183311 -45.846848 -11.921340 -1.271409 12.046866 
-26.851822 47.722309 7.493574 9.999736 -3.539296 13.956426 0.000000 0.000000 0.000000 19.925524 -1.074196 -0.184403 10.096708 0.107098 -3.989297 15.071977 1.911590 -2.917870 5.851680 -18.700418 25.000000 -21.414154 -25.686094 -1.374907 -49.582699 -8.407046 3.386586 13.427790 -5.021188 -6.660285 -7.102228 21.889599 25.000000 11.012375 26.890999 -1.301197 46.797783 6.606033 3.232590 -18.805124 -11.036674 -2.148481 -23.120211 14.349579 19.244350 34.868690 -12.603041 -5.314422 -68.574722 -2.015336 2.946902 -20.298460 -14.691703 -16.901457 30.250713 9.720160 -42.784763 -16.273336 -1.777412 12.376771 
-26.960829 47.944794 7.731871 9.339476 -3.045108 13.395593 0.000000 0.000000 0.000000 19.192579 -1.014525 -0.216524 11.144614 -0.776576 -3.782094 14.372232 2.817712 -3.367666 5.733863 -17.707165 25.000000 -26.086979 -22.635626 0.575996 -49.898399 -7.980636 3.372486 12.895159 -4.168350 -4.592146 -7.471282 20.982920 25.000000 14.367745 24.759375 -0.400879 47.899731 5.917137 3.210212 -18.359386 -11.022194 -0.791911 -22.211473 13.734078 17.111832 33.574581 -12.011605 2.524774 -69.434746 2.026176 -2.918154 -17.769436 -12.827007 -16.126204 29.344797 9.500760 -41.369640 -19.394144 -2.157338 12.442173 
-27.101784 48.185917 7.943501 9.108147 -2.169588 13.490029 0.000000 0.000000 0.000000 18.686382 -1.267389 -0.047861 10.823857 -0.626901 -4.301129 15.124708 2.745818 -3.914656 5.731121 -17.563759 25.000000 -28.909168 -20.865812 1.672836 -50.165775 -7.909427 3.369174 12.534594 -4.340890 -4.194772 -7.569070 20.706963 25.000000 16.158770 22.762094 -0.250665 48.235859 5.751355 3.197048 -18.346645 -11.060402 -2.258258 -21.295267 12.379364 15.043930 31.662697 -11.734655 7.336186 -66.842896 3.432714 -5.215284 -16.287260 -12.038819 -15.382902 28.239527 8.911091 -42.117737 -21.098486 -2.371473 12.567170 
